<svg width="143" height="183" viewBox="0 0 143 183" fill="none" xmlns="http://www.w3.org/2000/svg">
<path d="M34.2353 50.5703V51.4404C33.3072 51.4694 32.6111 51.5855 32.1471 51.7885C31.683 51.9625 31.3639 52.3106 31.1899 52.8326C31.0449 53.3257 30.9724 54.1088 30.9724 55.1819V76.7609C30.9724 77.8051 31.0449 78.5882 31.1899 79.1102C31.3639 79.6323 31.683 79.9804 32.1471 80.1544C32.6111 80.3284 33.3072 80.4444 34.2353 80.5024V81.3726C33.4522 81.3146 32.4661 81.2855 31.2769 81.2855C30.0878 81.2565 28.8841 81.242 27.6659 81.242C26.2447 81.242 24.9251 81.2565 23.7069 81.2855C22.5177 81.2855 21.5461 81.3146 20.792 81.3726V80.5024C21.6911 80.4444 22.3727 80.3284 22.8368 80.1544C23.3298 79.9804 23.6489 79.6323 23.7939 79.1102C23.9679 78.5882 24.0549 77.8051 24.0549 76.7609V55.1819C24.0549 54.1088 23.9679 53.3257 23.7939 52.8326C23.6489 52.3106 23.3298 51.9625 22.8368 51.7885C22.3727 51.5855 21.6911 51.4694 20.792 51.4404V50.5703C21.5461 50.5993 22.5177 50.6283 23.7069 50.6573C24.9251 50.6863 26.2447 50.7008 27.6659 50.7008C28.8841 50.7008 30.0878 50.6863 31.2769 50.6573C32.4661 50.6283 33.4522 50.5993 34.2353 50.5703ZM44.2417 52.9631C44.2417 52.9631 44.2417 53.1227 44.2417 53.4417C44.2417 53.7317 44.2417 54.0363 44.2417 54.3553C44.2707 54.6744 44.2852 54.8339 44.2852 54.8339L29.7542 79.4148L29.3627 78.1966L44.2417 52.9631ZM53.552 50.5703V51.4404C52.6239 51.4694 51.9278 51.5855 51.4637 51.7885C50.9997 51.9625 50.6806 52.3106 50.5066 52.8326C50.3616 53.3257 50.2891 54.1088 50.2891 55.1819V76.7609C50.2891 77.8051 50.3616 78.5882 50.5066 79.1102C50.6806 79.6323 50.9997 79.9804 51.4637 80.1544C51.9278 80.3284 52.6239 80.4444 53.552 80.5024V81.3726C52.7979 81.3146 51.8118 81.2855 50.5936 81.2855C49.3754 81.2565 48.0703 81.242 46.6781 81.242C45.4599 81.242 44.2417 81.2565 43.0236 81.2855C41.8344 81.2855 40.8628 81.3146 40.1087 81.3726V80.5024C41.0078 80.4444 41.6894 80.3284 42.1534 80.1544C42.6175 79.9804 42.9365 79.6323 43.1106 79.1102C43.2846 78.5882 43.3716 77.8051 43.3716 76.7609V55.1819C43.3716 54.1088 43.2846 53.3257 43.1106 52.8326C42.9365 52.3106 42.6175 51.9625 42.1534 51.7885C41.6894 51.5855 41.0078 51.4694 40.1087 51.4404V50.5703C40.8628 50.5993 41.8344 50.6283 43.0236 50.6573C44.2417 50.6863 45.4599 50.7008 46.6781 50.7008C48.0703 50.7008 49.3754 50.6863 50.5936 50.6573C51.8118 50.6283 52.7979 50.5993 53.552 50.5703Z" fill="#FFBC6C"/>
<path d="M95.7205 4.67188H12.1611C7.74286 4.67188 4.16113 8.2536 4.16113 12.6719V170.328C4.16113 174.746 7.74286 178.328 12.1611 178.328H130.426C134.844 178.328 138.426 174.746 138.426 170.328V47.3772C138.426 45.2555 137.583 43.2207 136.083 41.7204L101.377 7.01502C99.877 5.51473 97.8422 4.67188 95.7205 4.67188Z" stroke="#FFBC6C" stroke-width="8"/>
<path d="M96.2603 4.67188V43.6133C96.2603 45.2701 97.6034 46.6133 99.2603 46.6133H138.426" stroke="#FFBC6C" stroke-width="8"/>
<path d="M22.5542 96.6831H120.271" stroke="#FFBC6C" stroke-width="7" stroke-linecap="round"/>
<path d="M22.5542 115.486H104.057" stroke="#FFBC6C" stroke-width="7" stroke-linecap="round"/>
<path d="M22.5542 135.289H79.5246" stroke="#FFBC6C" stroke-width="7" stroke-linecap="round"/>
<path d="M22.5542 156.091H63.0121" stroke="#FFBC6C" stroke-width="7" stroke-linecap="round"/>
</svg>
