<svg width="86" height="82" viewBox="0 0 86 82" fill="none" xmlns="http://www.w3.org/2000/svg">
<path d="M43 49.1667C40.7448 49.1667 38.9166 47.3385 38.9166 45.0833V32.8333C38.9166 30.5782 40.7448 28.75 43 28.75C45.2551 28.75 47.0833 30.5782 47.0833 32.8333V45.0833C47.0833 47.3385 45.2551 49.1667 43 49.1667Z" fill="#FFFBF2"/>
<path d="M36.875 59.375C36.875 55.9923 39.6172 53.25 43 53.25C46.3827 53.25 49.125 55.9923 49.125 59.375C49.125 62.7578 46.3827 65.5 43 65.5C39.6172 65.5 36.875 62.7578 36.875 59.375Z" fill="#FFFBF2"/>
<path d="M35.7731 5.13038C38.8349 -0.687035 47.165 -0.687072 50.2268 5.13037L84.2966 69.8631C87.1589 75.3013 83.2153 81.8334 77.0698 81.8334H8.93011C2.78462 81.8334 -1.15897 75.3014 1.70328 69.8631L35.7731 5.13038ZM77.0698 73.6667L43 8.93397L8.93011 73.6667L77.0698 73.6667Z" fill="#FFFBF2"/>
</svg>
