<svg width="82" height="82" viewBox="0 0 82 82" fill="none" xmlns="http://www.w3.org/2000/svg">
<path d="M41 8.33329C22.9587 8.33329 8.33329 22.9587 8.33329 41C8.33329 59.0413 22.9587 73.6666 41 73.6666C59.0413 73.6666 73.6666 59.0413 73.6666 41C73.6666 22.9587 59.0413 8.33329 41 8.33329ZM0.166626 41C0.166626 18.4483 18.4483 0.166626 41 0.166626C63.5516 0.166626 81.8333 18.4483 81.8333 41C81.8333 63.5516 63.5516 81.8333 41 81.8333C18.4483 81.8333 0.166626 63.5516 0.166626 41ZM60.0461 27.7397C61.7316 29.238 61.8835 31.8189 60.3852 33.5044L38.6074 58.0044C37.8326 58.8762 36.7219 59.375 35.5555 59.375C34.3892 59.375 33.2785 58.8762 32.5036 58.0044L21.6147 45.7544C20.1165 44.0689 20.2683 41.4879 21.9538 39.9897C23.6393 38.4915 26.2203 38.6433 27.7185 40.3288L35.5555 49.1454L54.2814 28.0788C55.7796 26.3933 58.3606 26.2415 60.0461 27.7397Z" fill="#EFE6DE"/>
</svg>
